<svg width="38" height="38" viewBox="0 0 38 38" fill="none" xmlns="http://www.w3.org/2000/svg">
<path fill-rule="evenodd" clip-rule="evenodd" d="M15.2895 10.054C16.2493 10.0098 16.5553 10 19 10C21.4447 10 21.7507 10.0106 22.7096 10.054C23.6685 10.0974 24.3231 10.2504 24.8958 10.4721C25.4955 10.6987 26.0396 11.053 26.4896 11.5112C26.9478 11.9604 27.3013 12.5036 27.5271 13.1042C27.7496 13.6769 27.9018 14.3315 27.946 15.2887C27.9902 16.2501 28 16.5561 28 19C28 21.4447 27.9894 21.7507 27.946 22.7105C27.9026 23.6677 27.7496 24.3223 27.5271 24.895C27.3013 25.4956 26.9472 26.0398 26.4896 26.4896C26.0396 26.9478 25.4955 27.3013 24.8958 27.5271C24.3231 27.7496 23.6685 27.9018 22.7113 27.946C21.7507 27.9902 21.4447 28 19 28C16.5553 28 16.2493 27.9894 15.2895 27.946C14.3323 27.9026 13.6777 27.7496 13.105 27.5271C12.5044 27.3012 11.9602 26.9472 11.5104 26.4896C11.0525 26.0402 10.6982 25.4963 10.4721 24.8958C10.2504 24.3231 10.0982 23.6685 10.054 22.7113C10.0098 21.7499 10 21.4439 10 19C10 16.5553 10.0106 16.2493 10.054 15.2904C10.0974 14.3315 10.2504 13.6769 10.4721 13.1042C10.6985 12.5037 11.0531 11.9598 11.5112 11.5104C11.9604 11.0526 12.504 10.6983 13.1042 10.4721C13.6769 10.2504 14.3315 10.0982 15.2887 10.054H15.2895ZM22.6368 11.674C21.6877 11.6306 21.403 11.6216 19 11.6216C16.597 11.6216 16.3123 11.6306 15.3632 11.674C14.4853 11.7141 14.0091 11.8605 13.6916 11.9841C13.2719 12.1477 12.9716 12.3416 12.6566 12.6566C12.358 12.9471 12.1282 13.3008 11.9841 13.6916C11.8605 14.0091 11.7141 14.4853 11.674 15.3632C11.6306 16.3123 11.6216 16.597 11.6216 19C11.6216 21.403 11.6306 21.6877 11.674 22.6368C11.7141 23.5147 11.8605 23.9909 11.9841 24.3084C12.1281 24.6986 12.358 25.0529 12.6566 25.3434C12.9471 25.642 13.3014 25.8719 13.6916 26.0159C14.0091 26.1395 14.4853 26.2859 15.3632 26.326C16.3123 26.3694 16.5962 26.3784 19 26.3784C21.4038 26.3784 21.6877 26.3694 22.6368 26.326C23.5147 26.2859 23.9909 26.1395 24.3084 26.0159C24.7281 25.8523 25.0284 25.6584 25.3434 25.3434C25.642 25.0529 25.8719 24.6986 26.0159 24.3084C26.1395 23.9909 26.2859 23.5147 26.326 22.6368C26.3694 21.6877 26.3784 21.403 26.3784 19C26.3784 16.597 26.3694 16.3123 26.326 15.3632C26.2859 14.4853 26.1395 14.0091 26.0159 13.6916C25.8523 13.2719 25.6584 12.9716 25.3434 12.6566C25.0528 12.3581 24.6992 12.1283 24.3084 11.9841C23.9909 11.8605 23.5147 11.7141 22.6368 11.674ZM17.8505 21.7745C18.4924 22.0417 19.2073 22.0778 19.8729 21.8765C20.5386 21.6752 21.1137 21.2491 21.5 20.6709C21.8864 20.0927 22.06 19.3983 21.9913 18.7064C21.9226 18.0144 21.6157 17.3677 21.1232 16.8768C20.8092 16.563 20.4295 16.3228 20.0115 16.1733C19.5936 16.0238 19.1476 15.9689 18.7059 16.0125C18.2641 16.0561 17.8375 16.1971 17.4567 16.4253C17.076 16.6535 16.7506 16.9633 16.504 17.3324C16.2573 17.7015 16.0956 18.1207 16.0304 18.5598C15.9652 18.9989 15.9982 19.447 16.127 19.8718C16.2558 20.2966 16.4771 20.6876 16.7751 21.0166C17.0731 21.3456 17.4404 21.6044 17.8505 21.7745ZM15.7289 15.7289C16.1585 15.2993 16.6684 14.9586 17.2297 14.7261C17.791 14.4936 18.3925 14.374 19 14.374C19.6075 14.374 20.209 14.4936 20.7703 14.7261C21.3316 14.9586 21.8415 15.2993 22.2711 15.7289C22.7007 16.1585 23.0414 16.6684 23.2739 17.2297C23.5064 17.791 23.626 18.3925 23.626 19C23.626 19.6075 23.5064 20.209 23.2739 20.7703C23.0414 21.3316 22.7007 21.8415 22.2711 22.2711C21.4035 23.1386 20.2269 23.626 19 23.626C17.7731 23.626 16.5965 23.1386 15.7289 22.2711C14.8614 21.4035 14.374 20.2269 14.374 19C14.374 17.7731 14.8614 16.5965 15.7289 15.7289ZM24.652 15.0629C24.7584 14.9625 24.8437 14.8417 24.9026 14.7078C24.9616 14.5739 24.993 14.4294 24.9952 14.2831C24.9973 14.1368 24.97 13.9915 24.915 13.8559C24.86 13.7203 24.7784 13.5971 24.6749 13.4937C24.5714 13.3902 24.4482 13.3085 24.3126 13.2535C24.177 13.1985 24.0317 13.1713 23.8854 13.1734C23.7391 13.1755 23.5947 13.207 23.4607 13.2659C23.3268 13.3249 23.2061 13.4101 23.1056 13.5165C22.9103 13.7236 22.8034 13.9986 22.8076 14.2831C22.8117 14.5677 22.9266 14.8394 23.1279 15.0407C23.3291 15.2419 23.6008 15.3568 23.8854 15.361C24.17 15.3651 24.445 15.2582 24.652 15.0629Z" fill="white"/>
<circle cx="19" cy="19" r="18.5" stroke="white" stroke-opacity="0.6"/>
</svg>
