<svg width="38" height="38" viewBox="0 0 38 38" fill="none" xmlns="http://www.w3.org/2000/svg">
<circle cx="19" cy="19" r="18.5" stroke="white" stroke-opacity="0.6"/>
<path d="M7 14.0636C7 13.3092 7.4585 12.9024 8.37549 12.8432L11.9091 12.8654C12.1462 12.8654 12.3043 12.9763 12.3834 13.1982C12.747 14.3077 13.1542 15.2655 13.6047 16.0717C14.0553 16.878 14.6443 17.8062 15.3715 18.8565C15.4348 18.9896 15.5375 19.0562 15.6798 19.0562C15.7905 19.0562 15.8775 19.0044 15.9407 18.9009L16.0119 18.6568L16.0356 14.818C16.0356 14.5518 15.9684 14.3743 15.834 14.2855C15.6996 14.1967 15.4506 14.1302 15.087 14.0858C14.8024 14.0414 14.6601 13.8787 14.6601 13.5976C14.6601 13.5385 14.668 13.4941 14.6838 13.4645C15.0158 12.503 15.9644 12.0222 17.5296 12.0222L18.8577 12C19.4585 12 19.9565 12.1405 20.3518 12.4216C20.747 12.7027 20.9447 13.1464 20.9447 13.753V18.7899C21.0553 18.8639 21.1581 18.9009 21.253 18.9009C21.4901 18.9009 21.6957 18.7678 21.8696 18.5015C23.6087 16.2234 24.5494 14.6997 24.6917 13.9305C24.6917 13.9157 24.7075 13.8787 24.7391 13.8195C24.8498 13.5976 25.0316 13.4053 25.2846 13.2426C25.5375 13.0799 25.7589 12.9689 25.9486 12.9098C26.0119 12.8802 26.083 12.8654 26.1621 12.8654H29.8379L30.0751 12.8876C30.3913 12.8876 30.6364 13.0281 30.8103 13.3092C30.8735 13.3979 30.917 13.4941 30.9407 13.5976C30.9644 13.7012 30.9802 13.8047 30.9881 13.9083C30.996 14.0118 31 14.071 31 14.0858V14.2411C30.8893 14.8476 30.6087 15.4948 30.1581 16.1827C29.7075 16.8706 29.1344 17.6139 28.4387 18.4127C27.7431 19.2115 27.3083 19.7367 27.1344 19.9882C26.9921 20.1657 26.9209 20.3284 26.9209 20.4763C26.9209 20.5947 26.9842 20.7278 27.1107 20.8757L30.5731 24.9586C30.7628 25.1953 30.8577 25.4541 30.8577 25.7352C30.8577 26.0754 30.7154 26.3565 30.4308 26.5784C30.1462 26.8003 29.8063 26.926 29.4111 26.9556L29.0079 26.9778H25.4032C25.3874 26.9778 25.3557 26.9815 25.3083 26.9889C25.2609 26.9963 25.2292 27 25.2134 27C24.8656 27 24.5415 26.8595 24.2411 26.5784C24.1304 26.4601 23.3874 25.5873 22.0119 23.9601C21.9328 23.8565 21.8221 23.7604 21.6798 23.6716C21.6166 23.9083 21.5336 24.2485 21.4308 24.6923C21.3281 25.1361 21.253 25.4541 21.2055 25.6464L21.1344 26.0237C20.9763 26.5414 20.6443 26.8521 20.1383 26.9556L19.8063 26.9778H17.4822C16.17 26.9778 14.8617 26.4157 13.5573 25.2914C12.253 24.1672 11.0791 22.7138 10.0356 20.9312C8.99209 19.1487 8.01976 17.074 7.11858 14.7071C7.03953 14.5148 7 14.3003 7 14.0636ZM21.253 19.8107C20.9209 19.8107 20.6206 19.7256 20.3518 19.5555C20.083 19.3854 19.9486 19.1524 19.9486 18.8565V13.753C19.9486 13.4571 19.8696 13.2463 19.7115 13.1206C19.5534 12.9948 19.2767 12.932 18.8814 12.932L17.5296 12.9763C16.8498 12.9763 16.336 13.0873 15.9881 13.3092C16.6838 13.6198 17.0316 14.1228 17.0316 14.818V18.7234C17 19.0932 16.8419 19.4001 16.5573 19.6442C16.2727 19.8883 15.9565 20.0104 15.6087 20.0104C15.1344 20.0104 14.7708 19.7959 14.5178 19.3669C13.2846 17.6213 12.3676 15.9645 11.7668 14.3964L11.5534 13.8195L8.39921 13.7973C8.19368 13.7973 8.07905 13.8084 8.05534 13.8306C8.03162 13.8528 8.01976 13.9157 8.01976 14.0192C8.01976 14.1524 8.03557 14.2929 8.06719 14.4408L8.56522 15.6834C9.89328 18.8935 11.336 21.4231 12.8933 23.2722C14.4506 25.1213 15.9802 26.0459 17.4822 26.0459H19.8538C19.9486 26.0459 20.0198 26.02 20.0672 25.9682C20.1146 25.9164 20.1541 25.8166 20.1858 25.6686L20.2332 25.4467L20.6838 23.4941C20.8103 23.2278 20.9209 23.0503 21.0158 22.9615C21.1897 22.7988 21.3953 22.7175 21.6324 22.7175C22.0119 22.7175 22.3992 22.932 22.7945 23.3609L24.8103 25.7574C24.9368 25.9497 25.0711 26.0459 25.2134 26.0459H29.1265C29.6008 26.0459 29.8379 25.9349 29.8379 25.713C29.8379 25.6391 29.8142 25.5651 29.7668 25.4911L26.3281 21.4749C26.0593 21.1642 25.9249 20.8314 25.9249 20.4763C25.9249 20.1213 26.0514 19.7811 26.3043 19.4556C26.5099 19.1598 26.9091 18.6679 27.502 17.98C28.0949 17.2922 28.6126 16.6487 29.0553 16.0496C29.498 15.4504 29.7905 14.9068 29.9328 14.4186L30.004 14.1302C29.9881 14.1006 29.9802 14.0525 29.9802 13.9859C29.9802 13.9194 29.9723 13.8639 29.9565 13.8195H26.2332C25.996 13.9083 25.8063 14.0414 25.664 14.2189L25.5217 14.6405C25.1265 15.6612 24.0909 17.2367 22.415 19.3669C22.083 19.6627 21.6957 19.8107 21.253 19.8107Z" fill="white"/>
</svg>
